PathFileType	4	(X/Y/Z)	D:\TRACE\spot_10-12-23\spot_arm_motion_2_2-v60.trc
DataRate	CameraRate	NumFrames	NumMarkers	Units	OrigDataRate	OrigDataStartFrame	OrigNumFrames
100.00	100.00	      25	9	mm	100.00	1751	      7000
Frame#	Time	front left toe			Front right toe			aft left toe			aft right toe			Arm			FL body			FR body			AL Body			AR Body			
		X1	Y1	Z1	X2	Y2	Z2	X3	Y3	Z3	X4	Y4	Z4	X5	Y5	Z5	X6	Y6	Z6	X7	Y7	Z7	X8	Y8	Z8	X9	Y9	Z9	

1751	17.500	-159.44473	19.27217	-85.12351	319.64426	26.40553	13.78017	-274.37469	22.68622	492.75494	195.44751	21.57995	591.95703	5.52944	712.74170	-772.90137	2.63969	528.54291	-119.60287	151.76839	532.40643	-90.98891	-169.04716	590.99274	745.94843	-21.60196	588.26636	777.47510	
1752	17.510	-159.08157	19.80744	-84.88938	319.79559	25.62799	13.84995	-273.94019	21.88043	493.06982	196.57640	20.21079	592.25720	6.34175	712.58673	-772.61774	3.64350	528.85645	-119.07708	152.95940	532.74146	-90.53647	-167.77690	589.87842	745.93896	-20.43039	587.92090	777.25769	
1753	17.520	-157.82898	20.05794	-84.38900	320.85245	25.78928	14.32608	-272.62491	20.61979	493.43301	197.63365	18.98004	592.58960	6.97611	712.41779	-772.29980	4.82463	529.03931	-118.81243	152.13173	534.24048	-91.25322	-165.86288	589.01373	746.96313	-18.87351	586.65625	777.73938	
1754	17.530	-156.58727	20.02446	-84.01668	322.51627	26.26527	14.99844	-271.28149	19.43635	493.69427	198.45683	17.61615	592.99335	7.71814	712.19489	-772.11475	6.29391	529.35657	-118.39789	155.48083	533.11328	-89.77277	-164.50954	587.92657	747.44873	-17.64971	585.50952	778.23016	
1755	17.540	-155.92775	20.62020	-83.70071	323.52881	26.47202	15.59155	-270.71890	18.60249	493.98914	199.55313	16.32042	593.28345	8.64396	711.99634	-771.77039	7.32546	529.60138	-118.00492	156.67802	533.28766	-89.46449	-162.96350	586.86670	747.91925	-15.97695	584.37061	778.69031	
1756	17.550	-154.96936	20.95059	-83.31885	324.62582	26.51539	15.98432	-268.94714	17.09430	494.52600	200.39714	14.70040	593.63397	9.34932	711.83704	-771.75244	8.84824	529.75244	-117.51548	157.89705	533.54028	-89.04610	-161.88889	585.68744	748.03326	-14.54653	583.42670	779.25507	
1757	17.560	-153.25284	20.75916	-83.02102	325.70044	26.83689	16.47190	-268.02695	16.26946	494.75232	201.65454	13.59486	593.92291	10.31596	711.38324	-771.53021	10.07451	530.06775	-117.13798	159.41162	533.65393	-88.75009	-160.28793	584.69250	748.95087	-12.95661	581.50043	780.26428	
1758	17.570	-152.86276	21.52073	-82.69838	326.38623	26.99932	16.63923	-267.56912	15.49629	495.03882	202.58620	12.18222	594.20483	11.29478	710.91919	-771.30731	11.30999	530.20697	-116.86951	158.78943	535.31439	-89.47101	-158.61536	583.57166	749.80084	-11.35707	580.71826	780.13342	
1759	17.580	-151.94986	21.64533	-82.12514	326.13763	28.47925	17.87914	-265.97015	14.09325	495.58954	203.31010	10.14016	593.89655	12.06223	710.59332	-771.14093	12.85735	530.31689	-116.32537	159.54469	535.20734	-89.22590	-157.13721	582.48456	750.31018	-10.28650	579.60382	780.47803	
1760	17.590	-150.99319	21.82822	-81.74562	328.37619	26.46970	17.38923	-265.51828	13.28685	495.67566	204.23441	8.77131	594.32281	12.90147	710.13330	-770.86920	13.73921	530.47015	-116.06845	162.87334	533.83966	-87.87574	-155.86919	581.55164	750.89648	-8.61567	578.58813	780.98236	
1761	17.600	-150.27335	22.34510	-81.58807	328.17896	25.10890	17.54763	-264.28903	12.13008	495.94550	205.24901	7.66719	594.74872	13.88040	709.83899	-770.55322	15.18235	530.68372	-115.68227	164.72160	533.67334	-86.95473	-154.48016	580.31854	750.83783	-7.16311	577.30524	781.39569	
1762	17.610	-149.11514	22.47428	-81.12655	328.78702	25.14754	17.83297	-263.24982	10.86235	496.45972	206.09352	6.31933	595.02869	15.08607	709.45483	-770.28613	16.50522	530.78473	-115.32965	166.18759	533.61371	-86.57153	-153.21851	579.08484	751.82074	-6.29519	575.90643	781.76080	
1763	17.620	-148.30727	22.76924	-80.80413	329.86383	25.20255	17.92317	-263.30130	10.51432	496.27454	207.41621	5.42335	595.41199	16.25739	709.20703	-770.16376	17.82242	530.89825	-115.00124	167.43465	533.54346	-86.30814	-151.76636	578.00690	752.10748	-4.35394	574.80054	782.24323	
1764	17.630	-146.75931	22.75594	-80.40747	331.08090	25.30930	18.43697	-261.56320	9.02214	496.83099	208.45274	4.17144	595.89160	17.24422	708.88312	-770.00049	19.08681	530.84082	-114.54070	168.52608	533.60120	-86.07957	-150.45145	576.93323	752.97192	-2.99505	573.48907	782.65234	
1765	17.640	-146.49797	23.26839	-80.13823	331.52545	25.18238	18.78872	-261.48599	8.52116	496.74057	209.29546	3.13902	596.45801	18.23729	708.50079	-769.89441	20.23205	531.20728	-114.19165	169.79848	533.72992	-85.64100	-149.03989	575.40875	752.87585	-2.06196	572.09894	783.11725	
1766	17.650	-145.64040	23.52283	-79.56016	332.39828	25.27362	19.15424	-260.54700	7.43868	497.23383	209.95500	1.54314	596.40552	19.37401	708.19122	-769.68036	21.89166	530.89386	-113.52250	171.33398	533.59070	-85.18851	-147.75398	574.20483	752.98248	-0.44662	570.85168	783.72107	
1767	17.660	-144.69530	23.81110	-79.40548	333.45343	25.34873	19.72945	-258.86172	5.87158	497.87317	210.66699	0.53388	596.86273	20.41469	708.08875	-769.68024	23.14058	530.79529	-113.23946	172.92004	533.28668	-84.72756	-146.46489	573.15814	753.34955	0.41840	569.63898	784.05286	
1768	17.670	-143.98389	24.06454	-79.05299	335.21179	27.08503	20.82962	-258.94757	5.51915	497.71808	211.59200	-0.66414	597.14838	21.42930	708.24506	-769.92834	24.30004	530.46844	-112.95048	171.53938	534.77362	-85.70701	-145.11505	572.22021	753.92407	2.06904	568.47998	784.29199	
1769	17.680	-143.26599	24.36444	-78.60542	336.00906	26.69614	21.21200	-257.80981	4.52787	497.80960	212.31816	-2.04203	597.22845	22.50869	708.90753	-770.27911	25.53889	530.27252	-112.78382	175.00890	532.62543	-84.18346	-144.08116	571.05060	754.23932	3.06653	567.36853	784.75800	
1770	17.690	-142.31935	24.60156	-78.16219	337.07260	26.63459	21.72002	-256.73700	3.00829	498.66342	213.26047	-3.17253	597.58978	23.72132	710.39386	-770.59692	26.60220	529.51141	-112.19777	176.42570	531.99658	-83.73188	-142.70566	569.89862	754.45233	4.46952	566.31195	785.27478	
1771	17.700	-141.67876	24.83234	-77.94131	337.79547	26.38455	21.68073	-256.69284	2.53995	498.49927	213.81549	-4.36861	597.98425	24.83653	712.81262	-770.88629	27.81497	529.26868	-111.63366	177.08232	531.68103	-83.68275	-141.33070	568.83911	755.08142	6.82790	564.23254	786.68622	
1772	17.710	-141.09984	25.01203	-77.56811	336.80136	25.18122	21.34289	-255.74028	1.51769	498.77667	214.73454	-5.94500	598.07489	25.98237	715.75970	-770.75488	28.92737	529.10406	-111.84800	178.42194	531.21716	-83.36330	-140.12303	567.70154	755.34412	6.96455	563.56433	785.95380	
1773	17.720	-140.36606	25.33854	-77.21439	337.49332	25.23598	21.67120	-254.84840	0.37557	499.43597	215.14624	-6.90981	598.58264	27.03995	719.08154	-770.51843	29.77853	529.03009	-111.65617	179.51677	530.81128	-82.94508	-138.49689	566.29712	755.96460	8.27892	562.11420	786.03046	
1774	17.730	-139.68567	25.65981	-76.97498	338.05078	25.27865	21.93048	-253.62193	-1.08584	499.92407	215.71832	-8.50324	598.56665	28.25011	722.59839	-770.20367	31.11593	528.93225	-111.10983	180.65710	530.87305	-82.68948	-137.42004	564.74951	756.52795	9.51877	560.61401	786.59143	
1775	17.740	-139.09212	25.91387	-76.48758	338.95227	25.32063	22.34949	-253.15823	-2.09704	500.07983	216.66333	-9.51789	598.84528	29.58624	726.16364	-769.61517	32.10055	529.12402	-110.75571	181.87416	530.87756	-82.20251	-136.29784	563.53223	757.07745	10.76442	559.01526	787.12506	
